{"title":"Rychly Prachy (PRAHA - 21.04.2012) - Nikola","uid":7218601,"size":323919914,"categoryP":"porn","categoryS":"movies","magnet":"?xt=urn:btih:b95c86455fd25f49697faf6b78935f62180953ed&amp;dn=Rychly+Prachy+%28PRAHA+-+21.04.2012%29+-+Nikola&amp;tr=udp%3A%2F%2Ftracker.openbittorrent.com%3A80&amp;tr=udp%3A%2F%2Fopen.demonii.com%3A1337&amp;tr=udp%3A%2F%2Ftracker.coppersurfer.tk%3A6969&amp;tr=udp%3A%2F%2Fexodus.desync.com%3A6969","seeders":1,"leechers":0,"uploader":null,"files":4,"time":1335457147,"description":"\n\n                Rychly Prachy (PRAHA - 21.04.2012) - Nikola\n\n  Without advertising!\n\nScreen:         &lt;a href=&quot; http://image.bayimg.com/eaocpaade.jpg&quot; rel=&quot;nofollow&quot; target=&quot;_NEW&quot;&gt; http://image.bayimg.com/eaocpaade.jpg&lt;/a&gt;\nOficial website: http://rychlyprachy.cz\nDirect Link:    &lt;a href=&quot; http://rychlyprachy.cz/video60.cz.html&quot; rel=&quot;nofollow&quot; target=&quot;_NEW&quot;&gt; http://rychlyprachy.cz/video60.cz.html&lt;/a&gt;\n\n\n\nGeneral\nComplete name                            : Rychly Prachy (PRAHA - 21.04.2012) - Nikola.wmv\nFormat                                   : Windows Media\nFile size                                : 309 MiB\nDuration                                 : 16mn 23s\nOverall bit rate mode                    : Constant\nOverall bit rate                         : 2 634 Kbps\nMaximum Overall bit rate                 : 2 645 Kbps\nEncoded date                             : UTC 2012-04-20 23:40:52.580\nSfOriginalFPS                            : 300000\n\nVideo\nID                                       : 2\nFormat                                   : VC-1\nFormat profile                           : MP@ML\nCodec ID                                 : WMV3\nCodec ID/Info                            : Windows Media Video 9\nCodec ID/Hint                            : WMV3\nDescription of the codec                 : Windows Media Video 9 - Professional\nDuration                                 : 16mn 23s\nBit rate mode                            : Constant\nBit rate                                 : 2 525 Kbps\nWidth                                    : 640 pixels\nHeight                                   : 480 pixels\nDisplay aspect ratio                     : 4:3\nFrame rate                               : 30.000 fps\nBit depth                                : 8 bits\nScan type                                : Progressive\nCompression mode                         : Lossy\nBits/(Pixel*Frame)                       : 0.274\nStream size                              : 296 MiB (96%)\nLanguage                                 : Czech\n\nAudio\nID                                       : 1\nFormat                                   : WMA\nFormat version                           : Version 2\nCodec ID                                 : 161\nCodec ID/Info                            : Windows Media Audio\nDescription of the codec                 : Windows Media Audio 9.2 -  96 kbps, 44 kHz, stereo (A/V) 1-pass CBR\nDuration                                 : 16mn 23s\nBit rate mode                            : Constant\nBit rate                                 : 96.0 Kbps\nChannel(s)                               : 2 channels\nSampling rate                            : 44.1 KHz\nBit depth                                : 16 bits\nStream size                              : 11.3 MiB (4%)\nLanguage                                 : Czech\n\n\n\n\n\n\n\n","torrent":{"xt":"urn:btih:b95c86455fd25f49697faf6b78935f62180953ed","amp;dn":"Rychly+Prachy+%28PRAHA+-+21.04.2012%29+-+Nikola","amp;tr":["udp%3A%2F%2Ftracker.openbittorrent.com%3A80","udp%3A%2F%2Fopen.demonii.com%3A1337","udp%3A%2F%2Ftracker.coppersurfer.tk%3A6969","udp%3A%2F%2Fexodus.desync.com%3A6969"],"infoHash":"b95c86455fd25f49697faf6b78935f62180953ed","infoHashBuffer":{"type":"Buffer","data":[185,92,134,69,95,210,95,73,105,127,175,107,120,147,95,98,24,9,83,237]},"announce":[],"urlList":[]}}